<?xml version="1.0" standalone="no"?>
<!DOCTYPE svg PUBLIC "-//W3C//DTD SVG 20010904//EN"
 "http://www.w3.org/TR/2001/REC-SVG-20010904/DTD/svg10.dtd">
<svg version="1.0" xmlns="http://www.w3.org/2000/svg"
 width="4000.000000pt" height="2666.000000pt" viewBox="0 0 4000.000000 2666.000000"
 preserveAspectRatio="xMidYMid meet">

<g transform="translate(0.000000,2666.000000) scale(0.100000,-0.100000)"
fill="#000000" stroke="none">
<path d="M14829 21356 c-2 -3 -60 -10 -129 -16 -775 -70 -1574 -393 -2200
-889 -403 -320 -717 -687 -978 -1146 -127 -223 -166 -308 -276 -600 -102 -269
-147 -465 -188 -820 -20 -176 -29 -1978 -31 -5845 -2 -3761 -1 -3867 33 -4160
22 -195 68 -434 106 -560 205 -678 450 -1140 845 -1595 118 -137 341 -352 474
-458 368 -295 832 -544 1310 -702 211 -70 408 -116 695 -162 110 -17 324 -18
5130 -18 4813 0 5019 1 5120 18 528 92 867 201 1285 412 471 237 863 542 1224
949 329 372 586 824 766 1348 110 321 152 527 182 900 16 209 17 508 18 4893
0 4410 -1 4680 -18 4855 -47 487 -159 889 -367 1315 -198 406 -446 752 -775
1080 -266 266 -552 484 -857 653 -66 37 -275 142 -282 142 -4 0 -58 24 -161
70 -103 47 -427 159 -565 197 -211 56 -442 101 -645 125 -75 9 -1312 13 -4906
15 -2643 2 -4807 1 -4810 -1z m1121 -1197 c342 -32 604 -160 849 -415 124
-128 183 -213 267 -379 92 -183 135 -334 162 -565 l7 -65 2385 0 c2267 0 2387
1 2413 18 24 16 27 24 27 75 1 319 173 704 430 961 396 396 1032 493 1544 235
293 -147 561 -442 681 -749 41 -104 86 -263 110 -390 10 -49 22 -96 28 -103 5
-7 78 -47 161 -90 284 -145 501 -306 722 -534 349 -362 542 -738 663 -1293 43
-195 41 -43 41 -4109 0 -3436 -2 -3869 -16 -3997 -26 -243 -83 -485 -161 -689
-49 -127 -189 -418 -260 -538 -374 -637 -978 -1135 -1648 -1358 -184 -61 -406
-111 -625 -141 -129 -17 -311 -18 -4130 -18 -4245 0 -4030 -2 -4305 46 -174
30 -326 76 -597 178 -88 34 -334 161 -433 225 -342 220 -630 494 -859 815
-322 453 -513 950 -578 1506 -19 163 -19 7640 0 7830 37 368 111 632 258 928
278 555 712 968 1249 1187 88 36 90 38 97 76 4 21 14 84 23 139 10 55 35 153
57 219 188 567 637 942 1193 995 50 4 99 9 110 10 11 0 72 -4 135 -10z"/>
<path d="M23202 19960 c-438 -36 -806 -281 -1004 -666 -47 -92 -92 -206 -107
-276 -13 -57 -1 -39 54 82 27 58 52 107 57 108 4 2 8 8 8 13 0 5 28 51 63 101
64 96 285 328 311 328 5 0 28 14 53 30 122 82 344 162 502 180 167 19 391 8
501 -24 25 -7 47 -14 50 -14 3 0 12 -3 20 -5 8 -3 35 -10 59 -17 58 -16 215
-98 321 -169 47 -31 137 -108 202 -172 65 -64 118 -113 118 -109 0 19 -109
159 -178 228 -180 182 -396 303 -642 357 -55 13 -275 38 -290 34 -3 -1 -47 -5
-98 -9z"/>
<path d="M15735 19945 c-366 -67 -664 -267 -868 -582 -15 -24 -24 -43 -20 -43
7 0 73 70 73 78 0 7 161 164 182 177 9 5 47 33 85 60 105 77 291 166 398 191
207 47 448 54 630 19 152 -30 357 -125 505 -236 114 -85 178 -146 267 -257 37
-46 69 -78 71 -72 6 18 -87 166 -154 244 -171 200 -385 333 -646 402 -88 22
-128 27 -273 30 -120 2 -193 -1 -250 -11z"/>
<path d="M23390 19153 c-174 -29 -320 -158 -377 -332 -13 -39 -16 -165 -20
-803 l-5 -757 -77 -63 c-121 -99 -238 -216 -281 -283 -56 -86 -96 -202 -116
-339 -27 -179 -3 -337 74 -494 73 -148 229 -310 385 -400 249 -144 545 -147
827 -8 49 24 66 30 50 16 -43 -36 -242 -128 -325 -151 -123 -33 -335 -38 -446
-10 -94 24 -184 63 -276 122 -35 21 -63 35 -63 29 0 -15 83 -94 137 -131 60
-42 156 -84 245 -109 96 -26 234 -27 362 0 96 20 227 69 254 96 7 8 19 14 27
14 7 0 15 3 17 8 2 4 21 19 43 34 69 47 205 203 205 235 0 5 20 35 45 68 97
129 145 248 171 420 20 132 9 271 -32 412 -33 114 -59 159 -164 293 -49 60
-99 127 -112 147 l-23 38 -5 780 -5 780 -27 69 c-85 210 -300 351 -488 319z"/>
<path d="M15645 19110 c-101 -51 -191 -138 -237 -229 l-33 -66 -5 -805 c-4
-577 -8 -812 -17 -831 -6 -14 -46 -63 -89 -110 -177 -193 -247 -365 -248 -609
0 -179 36 -318 122 -464 43 -73 167 -204 248 -262 203 -145 458 -192 721 -134
275 62 523 293 616 573 29 88 31 100 31 262 1 184 -12 257 -70 384 -65 141
-203 297 -318 357 -47 24 -59 37 -78 79 l-22 50 1 605 c1 333 -2 682 -6 775
-7 160 -9 173 -36 228 -17 35 -52 80 -86 111 -93 87 -196 126 -329 126 -80 0
-91 -3 -165 -40z"/>
<path d="M14502 18564 c-115 -30 -366 -174 -527 -302 -113 -90 -261 -239 -349
-352 -96 -122 -150 -199 -153 -219 -2 -16 1 -12 47 49 40 54 51 66 177 199
194 204 398 354 658 485 83 41 157 81 166 88 17 14 43 58 37 63 -2 1 -27 -4
-56 -11z"/>
<path d="M17507 18563 c-46 -5 -47 -25 -4 -57 l28 -21 2142 -2 c2261 -2 2207
-3 2257 42 52 47 165 45 -2182 43 -1212 -1 -2220 -3 -2241 -5z"/>
<path d="M24860 18512 c0 -18 65 -84 101 -102 60 -31 213 -135 329 -224 104
-80 192 -159 343 -309 44 -43 81 -76 84 -73 10 9 -120 161 -238 277 -128 128
-312 270 -456 355 -100 60 -163 89 -163 76z"/>
<path d="M25725 17780 c3 -5 8 -10 11 -10 2 0 4 5 4 10 0 6 -5 10 -11 10 -5 0
-7 -4 -4 -10z"/>
<path d="M16674 15814 c-285 -314 -704 -390 -1121 -203 -36 16 -69 27 -72 23
-12 -13 87 -87 174 -129 129 -63 250 -89 385 -81 260 14 456 112 616 307 56
68 110 159 95 159 -5 0 -39 -34 -77 -76z"/>
<path d="M14507 14629 c-143 -20 -298 -135 -359 -266 -30 -64 -33 -77 -40
-228 -5 -88 -7 -1296 -5 -2685 3 -2710 1 -2556 50 -2770 102 -436 397 -851
795 -1118 248 -167 495 -263 802 -313 58 -9 945 -12 3860 -13 3565 0 3791 1
3888 17 143 24 215 42 340 83 379 124 737 395 962 729 145 215 276 526 326
775 35 175 39 502 39 2970 0 2339 -1 2406 -19 2456 -53 143 -171 227 -273 193
-70 -23 -414 -359 -2574 -2519 -2399 -2398 -3158 -3146 -3249 -3202 -110 -68
-184 -91 -313 -96 -171 -7 -292 38 -439 161 -78 66 -877 870 -2204 2217 -423
430 -460 486 -471 713 -7 133 10 214 72 342 91 189 256 333 444 389 81 24 120
20 48 -5 -175 -60 -326 -222 -381 -408 -9 -30 -16 -59 -16 -65 0 -9 60 76 96
137 13 22 144 151 144 142 0 -3 10 4 23 16 12 12 51 35 87 51 182 83 389 91
547 22 29 -13 57 -24 60 -24 4 0 -9 16 -28 37 -18 20 -27 32 -19 28 32 -18
209 -178 290 -262 97 -101 466 -478 915 -933 171 -173 393 -399 493 -503 101
-103 200 -196 221 -207 78 -39 215 -34 305 12 40 21 211 185 735 709 146 146
688 684 1204 1195 925 915 1573 1571 1563 1581 -3 3 6 17 20 31 13 15 24 32
24 39 0 7 67 82 149 166 87 90 153 166 157 181 20 82 -16 154 -101 199 -38 21
-58 22 -415 29 -516 9 -7681 7 -7753 -3z"/>
</g>
</svg>
